<svg id="visual" viewBox="0 0 900 600" width="900" height="600" xmlns="http://www.w3.org/2000/svg" xmlns:xlink="http://www.w3.org/1999/xlink" version="1.1"><g stroke-width="1" stroke-linejoin="bevel"><path d="M463.9 297L434.1 309L511.9 351Z" fill="#393939" stroke="#393939"></path><path d="M434.1 309L402.1 399L511.9 351Z" fill="#343434" stroke="#343434"></path><path d="M402.1 399L412.1 428L511.9 351Z" fill="#3a3a3a" stroke="#3a3a3a"></path><path d="M511.9 351L567.7 293L463.9 297Z" fill="#3f3f3f" stroke="#3f3f3f"></path><path d="M412.1 428L476.9 464L511.9 351Z" fill="#393939" stroke="#393939"></path><path d="M511.9 351L582.7 396L567.7 293Z" fill="#404040" stroke="#404040"></path><path d="M565.7 443L582.7 396L511.9 351Z" fill="#3f3f3f" stroke="#3f3f3f"></path><path d="M567.7 293L513.9 219L463.9 297Z" fill="#3f3f3f" stroke="#3f3f3f"></path><path d="M463.9 297L397.1 225L434.1 309Z" fill="#363636" stroke="#363636"></path><path d="M513.9 219L397.1 225L463.9 297Z" fill="#404040" stroke="#404040"></path><path d="M434.1 309L313.3 323L402.1 399Z" fill="#3f3f3f" stroke="#3f3f3f"></path><path d="M476.9 464L565.7 443L511.9 351Z" fill="#404040" stroke="#404040"></path><path d="M334.3 230L313.3 323L434.1 309Z" fill="#343434" stroke="#343434"></path><path d="M402.1 399L338.3 450L412.1 428Z" fill="#424242" stroke="#424242"></path><path d="M401.1 524L481.9 499L476.9 464Z" fill="#333333" stroke="#333333"></path><path d="M476.9 464L481.9 499L565.7 443Z" fill="#393939" stroke="#393939"></path><path d="M313.3 323L310.3 377L402.1 399Z" fill="#363636" stroke="#363636"></path><path d="M412.1 428L401.1 524L476.9 464Z" fill="#404040" stroke="#404040"></path><path d="M310.3 377L338.3 450L402.1 399Z" fill="#3d3d3d" stroke="#3d3d3d"></path><path d="M651.5 276L595.7 233L567.7 293Z" fill="#404040" stroke="#404040"></path><path d="M567.7 293L595.7 233L513.9 219Z" fill="#343434" stroke="#343434"></path><path d="M397.1 225L334.3 230L434.1 309Z" fill="#3f3f3f" stroke="#3f3f3f"></path><path d="M338.3 450L401.1 524L412.1 428Z" fill="#393939" stroke="#393939"></path><path d="M664.5 349L651.5 276L567.7 293Z" fill="#393939" stroke="#393939"></path><path d="M664.5 349L567.7 293L582.7 396Z" fill="#373737" stroke="#373737"></path><path d="M658.5 460L664.5 349L582.7 396Z" fill="#3d3d3d" stroke="#3d3d3d"></path><path d="M505.9 140L387.1 159L397.1 225Z" fill="#343434" stroke="#343434"></path><path d="M397.1 225L387.1 159L334.3 230Z" fill="#3c3c3c" stroke="#3c3c3c"></path><path d="M505.9 140L397.1 225L513.9 219Z" fill="#373737" stroke="#373737"></path><path d="M498.9 600L584.7 513L481.9 499Z" fill="#3a3a3a" stroke="#3a3a3a"></path><path d="M481.9 499L584.7 513L565.7 443Z" fill="#363636" stroke="#363636"></path><path d="M565.7 443L658.5 460L582.7 396Z" fill="#363636" stroke="#363636"></path><path d="M548.7 137L513.9 219L595.7 233Z" fill="#393939" stroke="#393939"></path><path d="M548.7 137L505.9 140L513.9 219Z" fill="#3f3f3f" stroke="#3f3f3f"></path><path d="M668.5 125L548.7 137L595.7 233Z" fill="#393939" stroke="#393939"></path><path d="M584.7 513L658.5 460L565.7 443Z" fill="#373737" stroke="#373737"></path><path d="M239.5 470L335.3 529L338.3 450Z" fill="#393939" stroke="#393939"></path><path d="M338.3 450L335.3 529L401.1 524Z" fill="#363636" stroke="#363636"></path><path d="M430.1 600L498.9 600L481.9 499Z" fill="#404040" stroke="#404040"></path><path d="M334.3 230L233.5 293L313.3 323Z" fill="#424242" stroke="#424242"></path><path d="M313.3 323L226.5 365L310.3 377Z" fill="#3a3a3a" stroke="#3a3a3a"></path><path d="M310.3 377L239.5 470L338.3 450Z" fill="#3f3f3f" stroke="#3f3f3f"></path><path d="M238.5 223L233.5 293L334.3 230Z" fill="#3d3d3d" stroke="#3d3d3d"></path><path d="M233.5 293L226.5 365L313.3 323Z" fill="#363636" stroke="#363636"></path><path d="M420.1 68L337.3 137L387.1 159Z" fill="#333333" stroke="#333333"></path><path d="M387.1 159L337.3 137L334.3 230Z" fill="#404040" stroke="#404040"></path><path d="M420.1 68L387.1 159L505.9 140Z" fill="#404040" stroke="#404040"></path><path d="M726.4 311L679.5 218L651.5 276Z" fill="#3a3a3a" stroke="#3a3a3a"></path><path d="M651.5 276L679.5 218L595.7 233Z" fill="#333333" stroke="#333333"></path><path d="M726.4 311L651.5 276L664.5 349Z" fill="#3c3c3c" stroke="#3c3c3c"></path><path d="M241.5 165L238.5 223L334.3 230Z" fill="#3f3f3f" stroke="#3f3f3f"></path><path d="M233.5 293L187.6 303L226.5 365Z" fill="#373737" stroke="#373737"></path><path d="M430.1 600L481.9 499L401.1 524Z" fill="#343434" stroke="#343434"></path><path d="M584.7 513L674.5 514L658.5 460Z" fill="#373737" stroke="#373737"></path><path d="M335.3 529L430.1 600L401.1 524Z" fill="#404040" stroke="#404040"></path><path d="M226.5 365L239.5 470L310.3 377Z" fill="#363636" stroke="#363636"></path><path d="M335.3 529L302.3 600L430.1 600Z" fill="#363636" stroke="#363636"></path><path d="M752.4 374L726.4 311L664.5 349Z" fill="#3d3d3d" stroke="#3d3d3d"></path><path d="M590.7 75L481.9 75L548.7 137Z" fill="#343434" stroke="#343434"></path><path d="M548.7 137L481.9 75L505.9 140Z" fill="#424242" stroke="#424242"></path><path d="M642.5 600L674.5 514L584.7 513Z" fill="#393939" stroke="#393939"></path><path d="M658.5 460L738.4 426L664.5 349Z" fill="#363636" stroke="#363636"></path><path d="M481.9 75L420.1 68L505.9 140Z" fill="#404040" stroke="#404040"></path><path d="M238.5 223L187.6 303L233.5 293Z" fill="#343434" stroke="#343434"></path><path d="M226.5 365L166.6 397L239.5 470Z" fill="#3f3f3f" stroke="#3f3f3f"></path><path d="M498.9 600L589.7 600L584.7 513Z" fill="#343434" stroke="#343434"></path><path d="M756.4 505L738.4 426L658.5 460Z" fill="#363636" stroke="#363636"></path><path d="M170.6 535L243.5 525L239.5 470Z" fill="#3a3a3a" stroke="#3a3a3a"></path><path d="M239.5 470L243.5 525L335.3 529Z" fill="#343434" stroke="#343434"></path><path d="M231.5 76L241.5 165L337.3 137Z" fill="#3f3f3f" stroke="#3f3f3f"></path><path d="M337.3 137L241.5 165L334.3 230Z" fill="#3f3f3f" stroke="#3f3f3f"></path><path d="M238.5 223L155.6 227L187.6 303Z" fill="#333333" stroke="#333333"></path><path d="M738.4 426L752.4 374L664.5 349Z" fill="#333333" stroke="#333333"></path><path d="M726.4 311L726.4 216L679.5 218Z" fill="#3f3f3f" stroke="#3f3f3f"></path><path d="M668.5 125L590.7 75L548.7 137Z" fill="#3f3f3f" stroke="#3f3f3f"></path><path d="M805.2 283L726.4 216L726.4 311Z" fill="#3c3c3c" stroke="#3c3c3c"></path><path d="M420.1 68L331.3 80L337.3 137Z" fill="#373737" stroke="#373737"></path><path d="M668.5 125L595.7 233L679.5 218Z" fill="#3f3f3f" stroke="#3f3f3f"></path><path d="M481.9 75L466.9 0L420.1 68Z" fill="#373737" stroke="#373737"></path><path d="M753.4 160L668.5 125L679.5 218Z" fill="#343434" stroke="#343434"></path><path d="M187.6 303L166.6 397L226.5 365Z" fill="#3c3c3c" stroke="#3c3c3c"></path><path d="M243.5 525L302.3 600L335.3 529Z" fill="#373737" stroke="#373737"></path><path d="M589.7 600L642.5 600L584.7 513Z" fill="#3f3f3f" stroke="#3f3f3f"></path><path d="M674.5 514L756.4 505L658.5 460Z" fill="#343434" stroke="#343434"></path><path d="M166.6 397L161.6 457L239.5 470Z" fill="#393939" stroke="#393939"></path><path d="M243.5 525L260.5 600L302.3 600Z" fill="#424242" stroke="#424242"></path><path d="M170.6 535L260.5 600L243.5 525Z" fill="#343434" stroke="#343434"></path><path d="M151.6 176L155.6 227L238.5 223Z" fill="#393939" stroke="#393939"></path><path d="M187.6 303L87.8 324L166.6 397Z" fill="#363636" stroke="#363636"></path><path d="M166.6 397L84.8 445L161.6 457Z" fill="#3f3f3f" stroke="#3f3f3f"></path><path d="M151.6 176L238.5 223L241.5 165Z" fill="#404040" stroke="#404040"></path><path d="M722.4 600L756.4 505L674.5 514Z" fill="#3a3a3a" stroke="#3a3a3a"></path><path d="M835.2 426L798.2 361L752.4 374Z" fill="#363636" stroke="#363636"></path><path d="M668.5 125L665.5 78L590.7 75Z" fill="#3c3c3c" stroke="#3c3c3c"></path><path d="M554.7 0L466.9 0L481.9 75Z" fill="#333333" stroke="#333333"></path><path d="M713.4 59L665.5 78L668.5 125Z" fill="#3c3c3c" stroke="#3c3c3c"></path><path d="M835.2 426L752.4 374L738.4 426Z" fill="#404040" stroke="#404040"></path><path d="M752.4 374L798.2 361L726.4 311Z" fill="#373737" stroke="#373737"></path><path d="M726.4 216L753.4 160L679.5 218Z" fill="#373737" stroke="#373737"></path><path d="M805.2 164L753.4 160L726.4 216Z" fill="#3d3d3d" stroke="#3d3d3d"></path><path d="M554.7 0L481.9 75L590.7 75Z" fill="#393939" stroke="#393939"></path><path d="M420.1 68L386.1 0L331.3 80Z" fill="#363636" stroke="#363636"></path><path d="M798.2 361L805.2 283L726.4 311Z" fill="#3c3c3c" stroke="#3c3c3c"></path><path d="M161.6 457L170.6 535L239.5 470Z" fill="#404040" stroke="#404040"></path><path d="M466.9 0L386.1 0L420.1 68Z" fill="#3c3c3c" stroke="#3c3c3c"></path><path d="M331.3 80L231.5 76L337.3 137Z" fill="#3c3c3c" stroke="#3c3c3c"></path><path d="M631.5 0L554.7 0L590.7 75Z" fill="#3a3a3a" stroke="#3a3a3a"></path><path d="M252.5 0L231.5 76L331.3 80Z" fill="#393939" stroke="#393939"></path><path d="M231.5 76L151.6 176L241.5 165Z" fill="#424242" stroke="#424242"></path><path d="M155.6 227L87.8 324L187.6 303Z" fill="#3a3a3a" stroke="#3a3a3a"></path><path d="M386.1 0L353.3 0L331.3 80Z" fill="#343434" stroke="#343434"></path><path d="M642.5 600L722.4 600L674.5 514Z" fill="#373737" stroke="#373737"></path><path d="M805.2 283L830.2 246L726.4 216Z" fill="#3c3c3c" stroke="#3c3c3c"></path><path d="M900 288L830.2 246L805.2 283Z" fill="#333333" stroke="#333333"></path><path d="M821.2 85L713.4 59L753.4 160Z" fill="#333333" stroke="#333333"></path><path d="M753.4 160L713.4 59L668.5 125Z" fill="#3c3c3c" stroke="#3c3c3c"></path><path d="M665.5 78L631.5 0L590.7 75Z" fill="#373737" stroke="#373737"></path><path d="M95.8 218L87.8 324L155.6 227Z" fill="#404040" stroke="#404040"></path><path d="M161.6 457L87.8 513L170.6 535Z" fill="#3c3c3c" stroke="#3c3c3c"></path><path d="M756.4 505L835.2 426L738.4 426Z" fill="#3a3a3a" stroke="#3a3a3a"></path><path d="M798.2 361L900 288L805.2 283Z" fill="#3f3f3f" stroke="#3f3f3f"></path><path d="M815.2 536L835.2 426L756.4 505Z" fill="#3c3c3c" stroke="#3c3c3c"></path><path d="M713.4 59L631.5 0L665.5 78Z" fill="#404040" stroke="#404040"></path><path d="M830.2 246L805.2 164L726.4 216Z" fill="#3a3a3a" stroke="#3a3a3a"></path><path d="M107.8 134L95.8 218L151.6 176Z" fill="#363636" stroke="#363636"></path><path d="M151.6 176L95.8 218L155.6 227Z" fill="#3a3a3a" stroke="#3a3a3a"></path><path d="M58.8 391L84.8 445L166.6 397Z" fill="#333333" stroke="#333333"></path><path d="M77.8 600L162.6 600L170.6 535Z" fill="#393939" stroke="#393939"></path><path d="M170.6 535L162.6 600L260.5 600Z" fill="#3c3c3c" stroke="#3c3c3c"></path><path d="M801.2 600L815.2 536L756.4 505Z" fill="#373737" stroke="#373737"></path><path d="M353.3 0L252.5 0L331.3 80Z" fill="#393939" stroke="#393939"></path><path d="M231.5 76L161.6 67L151.6 176Z" fill="#3d3d3d" stroke="#3d3d3d"></path><path d="M87.8 324L58.8 391L166.6 397Z" fill="#373737" stroke="#373737"></path><path d="M0 389L58.8 391L0 290Z" fill="#333333" stroke="#333333"></path><path d="M182.6 0L161.6 67L231.5 76Z" fill="#3a3a3a" stroke="#3a3a3a"></path><path d="M0 505L87.8 513L84.8 445Z" fill="#3d3d3d" stroke="#3d3d3d"></path><path d="M84.8 445L87.8 513L161.6 457Z" fill="#404040" stroke="#404040"></path><path d="M161.6 67L107.8 134L151.6 176Z" fill="#3d3d3d" stroke="#3d3d3d"></path><path d="M0 290L58.8 391L87.8 324Z" fill="#373737" stroke="#373737"></path><path d="M722.4 600L801.2 600L756.4 505Z" fill="#373737" stroke="#373737"></path><path d="M713.4 59L730.4 0L631.5 0Z" fill="#404040" stroke="#404040"></path><path d="M821.2 85L730.4 0L713.4 59Z" fill="#393939" stroke="#393939"></path><path d="M900 428L900 382L835.2 426Z" fill="#424242" stroke="#424242"></path><path d="M835.2 426L900 382L798.2 361Z" fill="#363636" stroke="#363636"></path><path d="M830.2 246L900 204L805.2 164Z" fill="#373737" stroke="#373737"></path><path d="M900 428L835.2 426L900 548Z" fill="#333333" stroke="#333333"></path><path d="M900 382L900 288L798.2 361Z" fill="#3d3d3d" stroke="#3d3d3d"></path><path d="M805.2 164L821.2 85L753.4 160Z" fill="#3a3a3a" stroke="#3a3a3a"></path><path d="M900 154L821.2 85L805.2 164Z" fill="#333333" stroke="#333333"></path><path d="M900 548L835.2 426L815.2 536Z" fill="#343434" stroke="#343434"></path><path d="M252.5 0L182.6 0L231.5 76Z" fill="#424242" stroke="#424242"></path><path d="M161.6 67L63.8 81L107.8 134Z" fill="#3c3c3c" stroke="#3c3c3c"></path><path d="M900 288L900 204L830.2 246Z" fill="#343434" stroke="#343434"></path><path d="M87.8 513L77.8 600L170.6 535Z" fill="#3a3a3a" stroke="#3a3a3a"></path><path d="M0 505L77.8 600L87.8 513Z" fill="#404040" stroke="#404040"></path><path d="M0 290L87.8 324L0 249Z" fill="#333333" stroke="#333333"></path><path d="M58.8 391L0 429L84.8 445Z" fill="#393939" stroke="#393939"></path><path d="M0 249L95.8 218L0 170Z" fill="#3f3f3f" stroke="#3f3f3f"></path><path d="M0 249L87.8 324L95.8 218Z" fill="#404040" stroke="#404040"></path><path d="M0 389L0 429L58.8 391Z" fill="#393939" stroke="#393939"></path><path d="M900 204L900 154L805.2 164Z" fill="#404040" stroke="#404040"></path><path d="M821.2 85L819.2 0L730.4 0Z" fill="#424242" stroke="#424242"></path><path d="M0 170L95.8 218L107.8 134Z" fill="#343434" stroke="#343434"></path><path d="M900 600L900 548L815.2 536Z" fill="#373737" stroke="#373737"></path><path d="M97.8 0L63.8 81L161.6 67Z" fill="#3c3c3c" stroke="#3c3c3c"></path><path d="M0 429L0 505L84.8 445Z" fill="#393939" stroke="#393939"></path><path d="M900 0L819.2 0L821.2 85Z" fill="#404040" stroke="#404040"></path><path d="M63.8 81L0 170L107.8 134Z" fill="#3c3c3c" stroke="#3c3c3c"></path><path d="M900 154L900 95L821.2 85Z" fill="#373737" stroke="#373737"></path><path d="M182.6 0L97.8 0L161.6 67Z" fill="#3c3c3c" stroke="#3c3c3c"></path><path d="M63.8 81L0 87L0 170Z" fill="#373737" stroke="#373737"></path><path d="M801.2 600L900 600L815.2 536Z" fill="#404040" stroke="#404040"></path><path d="M0 505L0 600L77.8 600Z" fill="#363636" stroke="#363636"></path><path d="M0 0L0 87L63.8 81Z" fill="#3d3d3d" stroke="#3d3d3d"></path><path d="M900 95L900 0L821.2 85Z" fill="#3a3a3a" stroke="#3a3a3a"></path><path d="M97.8 0L0 0L63.8 81Z" fill="#3c3c3c" stroke="#3c3c3c"></path></g></svg>